<?xml version="1.0" encoding="UTF-8" standalone="no"?>
<!DOCTYPE svg PUBLIC "-//W3C//DTD SVG 1.1//EN"
 "http://www.w3.org/Graphics/SVG/1.1/DTD/svg11.dtd">
<!-- Generated by graphviz version 2.38.0 (20140413.2041)
 -->
<!-- Title: %3 Pages: 1 -->
<svg width="903pt" height="703pt"
 viewBox="0.00 0.00 903.00 703.00" xmlns="http://www.w3.org/2000/svg" xmlns:xlink="http://www.w3.org/1999/xlink">
<g id="graph0" class="graph" transform="scale(1 1) rotate(0) translate(4 699)">
<title>%3</title>
<polygon fill="white" stroke="none" points="-4,4 -4,-699 899,-699 899,4 -4,4"/>
<text text-anchor="middle" x="447.5" y="-83.8" font-family="Times,serif" font-size="14.00">Model:</text>
<text text-anchor="middle" x="447.5" y="-68.8" font-family="Times,serif" font-size="14.00">(Unknown)</text>
<text text-anchor="middle" x="447.5" y="-37.8" font-family="Times,serif" font-size="14.00">Namespaces:</text>
<text text-anchor="middle" x="447.5" y="-22.8" font-family="Times,serif" font-size="14.00">rdf: http://www.w3.org/1999/02/22&#45;rdf&#45;syntax&#45;ns#</text>
<text text-anchor="middle" x="447.5" y="-7.8" font-family="Times,serif" font-size="14.00">http://www.asws.com/rois#</text>
<!-- Rr1 -->
<g id="node1" class="node"><title>Rr1</title>
<ellipse fill="none" stroke="blue" cx="27" cy="-196.5" rx="27" ry="18"/>
<text text-anchor="middle" x="27" y="-192.8" font-family="Times,serif" font-size="14.00">r1</text>
</g>
<!-- RRoi -->
<g id="node2" class="node"><title>RRoi</title>
<ellipse fill="none" stroke="blue" cx="650" cy="-292.5" rx="27" ry="18"/>
<text text-anchor="middle" x="650" y="-288.8" font-family="Times,serif" font-size="14.00">Roi</text>
</g>
<!-- Rr1&#45;&gt;RRoi -->
<g id="edge1" class="edge"><title>Rr1&#45;&gt;RRoi</title>
<path fill="none" stroke="black" d="M54.0711,-196.5C78.6744,-196.5 116.594,-196.5 149.5,-196.5 149.5,-196.5 149.5,-196.5 467,-196.5 530.56,-196.5 593.683,-242.871 626.275,-271.157"/>
<polygon fill="black" stroke="black" points="624.085,-273.893 633.885,-277.92 628.735,-268.661 624.085,-273.893"/>
<text text-anchor="middle" x="290" y="-200.3" font-family="Times,serif" font-size="14.00">rdf:type</text>
</g>
<!-- LFrancois I -->
<g id="node3" class="node"><title>LFrancois I</title>
<polygon fill="none" stroke="black" points="115,-131.5 115,-167.5 186,-167.5 186,-131.5 115,-131.5"/>
<text text-anchor="middle" x="150.5" y="-145.8" font-family="Times,serif" font-size="14.00">Francois I</text>
</g>
<!-- Rr1&#45;&gt;LFrancois I -->
<g id="edge2" class="edge"><title>Rr1&#45;&gt;LFrancois I</title>
<path fill="none" stroke="black" d="M45.1658,-183.132C52.9853,-177.598 62.5842,-171.542 72,-167.5 82.3011,-163.078 93.8597,-159.651 104.843,-157.032"/>
<polygon fill="black" stroke="black" points="105.707,-160.426 114.716,-154.849 104.196,-153.591 105.707,-160.426"/>
<text text-anchor="middle" x="84.5" y="-171.3" font-family="Times,serif" font-size="14.00">nom</text>
</g>
<!-- Rr3 -->
<g id="node4" class="node"><title>Rr3</title>
<ellipse fill="none" stroke="blue" cx="150.5" cy="-282.5" rx="27" ry="18"/>
<text text-anchor="middle" x="150.5" y="-278.8" font-family="Times,serif" font-size="14.00">r3</text>
</g>
<!-- Rr1&#45;&gt;Rr3 -->
<g id="edge25" class="edge"><title>Rr1&#45;&gt;Rr3</title>
<path fill="none" stroke="black" d="M46.1898,-209.375C66.5003,-223.751 99.5656,-247.155 122.807,-263.606"/>
<polygon fill="black" stroke="black" points="121.002,-266.616 131.186,-269.537 125.046,-260.903 121.002,-266.616"/>
<text text-anchor="middle" x="84.5" y="-249.3" font-family="Times,serif" font-size="14.00">fils</text>
</g>
<!-- Rr3&#45;&gt;RRoi -->
<g id="edge3" class="edge"><title>Rr3&#45;&gt;RRoi</title>
<path fill="none" stroke="black" d="M177.435,-280.969C239.127,-277.603 399.444,-270.47 533,-278.5 560.041,-280.126 590.437,-283.865 613.329,-287.071"/>
<polygon fill="black" stroke="black" points="612.884,-290.543 623.28,-288.496 613.877,-283.613 612.884,-290.543"/>
<text text-anchor="middle" x="359.5" y="-279.3" font-family="Times,serif" font-size="14.00">rdf:type</text>
</g>
<!-- LHenri II -->
<g id="node5" class="node"><title>LHenri II</title>
<polygon fill="none" stroke="black" points="260,-288.5 260,-324.5 320,-324.5 320,-288.5 260,-288.5"/>
<text text-anchor="middle" x="290" y="-302.8" font-family="Times,serif" font-size="14.00">Henri II</text>
</g>
<!-- Rr3&#45;&gt;LHenri II -->
<g id="edge4" class="edge"><title>Rr3&#45;&gt;LHenri II</title>
<path fill="none" stroke="black" d="M176.72,-286.902C197.115,-290.462 226.194,-295.538 249.648,-299.631"/>
<polygon fill="black" stroke="black" points="249.192,-303.105 259.645,-301.376 250.396,-296.209 249.192,-303.105"/>
<text text-anchor="middle" x="223" y="-302.3" font-family="Times,serif" font-size="14.00">nom</text>
</g>
<!-- Rr5 -->
<g id="node6" class="node"><title>Rr5</title>
<ellipse fill="none" stroke="blue" cx="290" cy="-437.5" rx="27" ry="18"/>
<text text-anchor="middle" x="290" y="-433.8" font-family="Times,serif" font-size="14.00">r5</text>
</g>
<!-- Rr3&#45;&gt;Rr5 -->
<g id="edge24" class="edge"><title>Rr3&#45;&gt;Rr5</title>
<path fill="none" stroke="black" d="M165.187,-297.929C189.484,-325.318 240.26,-382.557 268.66,-414.571"/>
<polygon fill="black" stroke="black" points="266.114,-416.976 275.369,-422.134 271.351,-412.33 266.114,-416.976"/>
<text text-anchor="middle" x="223" y="-387.3" font-family="Times,serif" font-size="14.00">epouse</text>
</g>
<!-- RReine -->
<g id="node7" class="node"><title>RReine</title>
<ellipse fill="none" stroke="blue" cx="831" cy="-546.5" rx="31.3957" ry="18"/>
<text text-anchor="middle" x="831" y="-542.8" font-family="Times,serif" font-size="14.00">Reine</text>
</g>
<!-- Rr5&#45;&gt;RReine -->
<g id="edge5" class="edge"><title>Rr5&#45;&gt;RReine</title>
<path fill="none" stroke="black" d="M297.02,-454.884C304.438,-474.543 318.496,-506.768 338,-529.5 421.927,-627.32 483.999,-609.39 612,-624.5 645.545,-628.46 655.282,-632.894 688,-624.5 731.514,-613.336 776.004,-585.742 803.314,-566.564"/>
<polygon fill="black" stroke="black" points="805.461,-569.332 811.555,-560.665 801.386,-563.64 805.461,-569.332"/>
<text text-anchor="middle" x="572.5" y="-625.3" font-family="Times,serif" font-size="14.00">rdf:type</text>
</g>
<!-- LCatherine de Medicis -->
<g id="node8" class="node"><title>LCatherine de Medicis</title>
<polygon fill="none" stroke="black" points="399,-527.5 399,-563.5 533,-563.5 533,-527.5 399,-527.5"/>
<text text-anchor="middle" x="466" y="-541.8" font-family="Times,serif" font-size="14.00">Catherine de Medicis</text>
</g>
<!-- Rr5&#45;&gt;LCatherine de Medicis -->
<g id="edge6" class="edge"><title>Rr5&#45;&gt;LCatherine de Medicis</title>
<path fill="none" stroke="black" d="M304.9,-453.074C313.807,-462.533 325.926,-474.481 338,-483.5 359.337,-499.438 385.412,-513.007 408.371,-523.35"/>
<polygon fill="black" stroke="black" points="407.1,-526.615 417.663,-527.44 409.92,-520.208 407.1,-526.615"/>
<text text-anchor="middle" x="359.5" y="-514.3" font-family="Times,serif" font-size="14.00">nom</text>
</g>
<!-- Rr4 -->
<g id="node9" class="node"><title>Rr4</title>
<ellipse fill="none" stroke="blue" cx="466" cy="-490.5" rx="27" ry="18"/>
<text text-anchor="middle" x="466" y="-486.8" font-family="Times,serif" font-size="14.00">r4</text>
</g>
<!-- Rr5&#45;&gt;Rr4 -->
<g id="edge13" class="edge"><title>Rr5&#45;&gt;Rr4</title>
<path fill="none" stroke="black" d="M314.829,-444.758C344.942,-453.931 396.96,-469.775 431.177,-480.198"/>
<polygon fill="black" stroke="black" points="430.594,-483.679 441.18,-483.245 432.634,-476.983 430.594,-483.679"/>
<text text-anchor="middle" x="359.5" y="-468.3" font-family="Times,serif" font-size="14.00">fils</text>
</g>
<!-- Rr2 -->
<g id="node13" class="node"><title>Rr2</title>
<ellipse fill="none" stroke="blue" cx="466" cy="-406.5" rx="27" ry="18"/>
<text text-anchor="middle" x="466" y="-402.8" font-family="Times,serif" font-size="14.00">r2</text>
</g>
<!-- Rr5&#45;&gt;Rr2 -->
<g id="edge20" class="edge"><title>Rr5&#45;&gt;Rr2</title>
<path fill="none" stroke="black" d="M316.301,-432.992C346.198,-427.666 396.121,-418.772 429.784,-412.774"/>
<polygon fill="black" stroke="black" points="430.437,-416.213 439.668,-411.013 429.209,-409.321 430.437,-416.213"/>
<text text-anchor="middle" x="359.5" y="-432.3" font-family="Times,serif" font-size="14.00">fils</text>
</g>
<!-- Rr9 -->
<g id="node17" class="node"><title>Rr9</title>
<ellipse fill="none" stroke="blue" cx="466" cy="-305.5" rx="27" ry="18"/>
<text text-anchor="middle" x="466" y="-301.8" font-family="Times,serif" font-size="14.00">r9</text>
</g>
<!-- Rr5&#45;&gt;Rr9 -->
<g id="edge23" class="edge"><title>Rr5&#45;&gt;Rr9</title>
<path fill="none" stroke="black" d="M308.642,-424.117C339.596,-400.634 403.792,-351.933 439.55,-324.807"/>
<polygon fill="black" stroke="black" points="441.719,-327.555 447.57,-318.722 437.488,-321.978 441.719,-327.555"/>
<text text-anchor="middle" x="359.5" y="-402.3" font-family="Times,serif" font-size="14.00">fils</text>
</g>
<!-- Rr4&#45;&gt;RRoi -->
<g id="edge7" class="edge"><title>Rr4&#45;&gt;RRoi</title>
<path fill="none" stroke="black" d="M486.342,-478.383C503.15,-468.058 528.295,-453.093 551,-441.5 569.608,-431.999 580.775,-438.675 594,-422.5 617.618,-393.614 596.229,-374.315 612,-340.5 616.028,-331.864 621.836,-323.331 627.661,-315.91"/>
<polygon fill="black" stroke="black" points="630.721,-317.702 634.401,-307.767 625.329,-313.239 630.721,-317.702"/>
<text text-anchor="middle" x="572.5" y="-445.3" font-family="Times,serif" font-size="14.00">rdf:type</text>
</g>
<!-- LFrancois II -->
<g id="node10" class="node"><title>LFrancois II</title>
<polygon fill="none" stroke="black" points="612,-578.5 612,-614.5 688,-614.5 688,-578.5 612,-578.5"/>
<text text-anchor="middle" x="650" y="-592.8" font-family="Times,serif" font-size="14.00">Francois II</text>
</g>
<!-- Rr4&#45;&gt;LFrancois II -->
<g id="edge8" class="edge"><title>Rr4&#45;&gt;LFrancois II</title>
<path fill="none" stroke="black" d="M492.044,-495.565C505.719,-499.486 522.048,-506.219 533,-517.5 548.871,-533.847 534.473,-549.817 551,-565.5 564.742,-578.54 583.941,-586.096 601.706,-590.474"/>
<polygon fill="black" stroke="black" points="601.433,-593.996 611.949,-592.702 602.921,-587.156 601.433,-593.996"/>
<text text-anchor="middle" x="572.5" y="-591.3" font-family="Times,serif" font-size="14.00">nom</text>
</g>
<!-- Rr6 -->
<g id="node11" class="node"><title>Rr6</title>
<ellipse fill="none" stroke="blue" cx="650" cy="-541.5" rx="27" ry="18"/>
<text text-anchor="middle" x="650" y="-537.8" font-family="Times,serif" font-size="14.00">r6</text>
</g>
<!-- Rr4&#45;&gt;Rr6 -->
<g id="edge12" class="edge"><title>Rr4&#45;&gt;Rr6</title>
<path fill="none" stroke="black" d="M491.129,-497.607C504.196,-502.115 520.231,-508.757 533,-517.5 542.598,-524.072 540.435,-531.633 551,-536.5 570.191,-545.341 593.791,-546.789 613.022,-545.932"/>
<polygon fill="black" stroke="black" points="613.456,-549.411 623.201,-545.251 612.989,-542.427 613.456,-549.411"/>
<text text-anchor="middle" x="572.5" y="-550.3" font-family="Times,serif" font-size="14.00">epouse</text>
</g>
<!-- Rr6&#45;&gt;RReine -->
<g id="edge9" class="edge"><title>Rr6&#45;&gt;RReine</title>
<path fill="none" stroke="black" d="M677.028,-542.227C706.553,-543.052 755.066,-544.407 789.538,-545.37"/>
<polygon fill="black" stroke="black" points="789.655,-548.874 799.749,-545.655 789.851,-541.877 789.655,-548.874"/>
<text text-anchor="middle" x="727.5" y="-548.3" font-family="Times,serif" font-size="14.00">rdf:type</text>
</g>
<!-- Rr6&#45;&gt;Rr4 -->
<g id="edge11" class="edge"><title>Rr6&#45;&gt;Rr4</title>
<path fill="none" stroke="black" d="M626.442,-532.666C616.567,-528.963 604.794,-524.769 594,-521.5 563.263,-512.191 527.703,-503.701 502.043,-497.97"/>
<polygon fill="black" stroke="black" points="502.559,-494.499 492.04,-495.763 501.051,-501.335 502.559,-494.499"/>
<text text-anchor="middle" x="572.5" y="-525.3" font-family="Times,serif" font-size="14.00">epoux</text>
</g>
<!-- LMary Stuart -->
<g id="node12" class="node"><title>LMary Stuart</title>
<polygon fill="none" stroke="black" points="789.5,-658.5 789.5,-694.5 872.5,-694.5 872.5,-658.5 789.5,-658.5"/>
<text text-anchor="middle" x="831" y="-672.8" font-family="Times,serif" font-size="14.00">Mary Stuart</text>
</g>
<!-- Rr6&#45;&gt;LMary Stuart -->
<g id="edge10" class="edge"><title>Rr6&#45;&gt;LMary Stuart</title>
<path fill="none" stroke="black" d="M668.489,-554.69C698.423,-577.266 759.904,-623.634 797.78,-652.2"/>
<polygon fill="black" stroke="black" points="795.854,-655.131 805.945,-658.358 800.069,-649.542 795.854,-655.131"/>
<text text-anchor="middle" x="727.5" y="-616.3" font-family="Times,serif" font-size="14.00">nom</text>
</g>
<!-- Rr2&#45;&gt;RRoi -->
<g id="edge14" class="edge"><title>Rr2&#45;&gt;RRoi</title>
<path fill="none" stroke="black" d="M484.288,-393.247C500.991,-380.662 527.19,-361.492 551,-346.5 573.179,-332.535 599.201,-318.29 618.855,-307.94"/>
<polygon fill="black" stroke="black" points="620.704,-310.923 627.947,-303.19 617.463,-304.719 620.704,-310.923"/>
<text text-anchor="middle" x="572.5" y="-350.3" font-family="Times,serif" font-size="14.00">rdf:type</text>
</g>
<!-- LCharles IX -->
<g id="node14" class="node"><title>LCharles IX</title>
<polygon fill="none" stroke="black" points="612,-350.5 612,-386.5 688,-386.5 688,-350.5 612,-350.5"/>
<text text-anchor="middle" x="650" y="-364.8" font-family="Times,serif" font-size="14.00">Charles IX</text>
</g>
<!-- Rr2&#45;&gt;LCharles IX -->
<g id="edge15" class="edge"><title>Rr2&#45;&gt;LCharles IX</title>
<path fill="none" stroke="black" d="M486.927,-394.957C503.473,-386.064 527.946,-374.475 551,-369.5 567.236,-365.996 585.339,-365.019 601.525,-365.151"/>
<polygon fill="black" stroke="black" points="601.769,-368.657 611.845,-365.383 601.926,-361.659 601.769,-368.657"/>
<text text-anchor="middle" x="572.5" y="-373.3" font-family="Times,serif" font-size="14.00">nom</text>
</g>
<!-- Rr8 -->
<g id="node15" class="node"><title>Rr8</title>
<ellipse fill="none" stroke="blue" cx="650" cy="-474.5" rx="27" ry="18"/>
<text text-anchor="middle" x="650" y="-470.8" font-family="Times,serif" font-size="14.00">r8</text>
</g>
<!-- Rr2&#45;&gt;Rr8 -->
<g id="edge19" class="edge"><title>Rr2&#45;&gt;Rr8</title>
<path fill="none" stroke="black" d="M491.775,-400.755C518.427,-395.886 561.371,-391.913 594,-407.5 611.88,-416.042 625.917,-433.521 635.335,-448.485"/>
<polygon fill="black" stroke="black" points="632.49,-450.55 640.594,-457.374 638.514,-446.986 632.49,-450.55"/>
<text text-anchor="middle" x="572.5" y="-411.3" font-family="Times,serif" font-size="14.00">epouse</text>
</g>
<!-- Rr8&#45;&gt;RReine -->
<g id="edge16" class="edge"><title>Rr8&#45;&gt;RReine</title>
<path fill="none" stroke="black" d="M673.67,-483.619C704.369,-495.967 759.439,-518.118 795.344,-532.56"/>
<polygon fill="black" stroke="black" points="794.343,-535.93 804.927,-536.415 796.955,-529.436 794.343,-535.93"/>
<text text-anchor="middle" x="727.5" y="-517.3" font-family="Times,serif" font-size="14.00">rdf:type</text>
</g>
<!-- Rr8&#45;&gt;Rr2 -->
<g id="edge18" class="edge"><title>Rr8&#45;&gt;Rr2</title>
<path fill="none" stroke="black" d="M622.875,-473.793C602.691,-472.536 574.353,-469.2 551,-460.5 529.479,-452.482 507.739,-438.303 491.768,-426.486"/>
<polygon fill="black" stroke="black" points="493.605,-423.486 483.527,-420.218 489.368,-429.058 493.605,-423.486"/>
<text text-anchor="middle" x="572.5" y="-475.3" font-family="Times,serif" font-size="14.00">epoux</text>
</g>
<!-- LElisabeth d Autriche -->
<g id="node16" class="node"><title>LElisabeth d Autriche</title>
<polygon fill="none" stroke="black" points="767,-452.5 767,-488.5 895,-488.5 895,-452.5 767,-452.5"/>
<text text-anchor="middle" x="831" y="-466.8" font-family="Times,serif" font-size="14.00">Elisabeth d Autriche</text>
</g>
<!-- Rr8&#45;&gt;LElisabeth d Autriche -->
<g id="edge17" class="edge"><title>Rr8&#45;&gt;LElisabeth d Autriche</title>
<path fill="none" stroke="black" d="M677.009,-472.833C686.168,-472.312 696.537,-471.796 706,-471.5 722.394,-470.987 740.013,-470.691 756.675,-470.528"/>
<polygon fill="black" stroke="black" points="756.936,-474.026 766.907,-470.443 756.878,-467.026 756.936,-474.026"/>
<text text-anchor="middle" x="727.5" y="-475.3" font-family="Times,serif" font-size="14.00">nom</text>
</g>
<!-- Rr9&#45;&gt;RRoi -->
<g id="edge21" class="edge"><title>Rr9&#45;&gt;RRoi</title>
<path fill="none" stroke="black" d="M492.268,-301.004C508.895,-298.265 531.17,-295.011 551,-293.5 571.375,-291.947 594.201,-291.632 612.695,-291.734"/>
<polygon fill="black" stroke="black" points="612.721,-295.234 622.755,-291.832 612.789,-288.234 612.721,-295.234"/>
<text text-anchor="middle" x="572.5" y="-297.3" font-family="Times,serif" font-size="14.00">rdf:type</text>
</g>
<!-- LHenry III -->
<g id="node18" class="node"><title>LHenry III</title>
<polygon fill="none" stroke="black" points="616,-211.5 616,-247.5 684,-247.5 684,-211.5 616,-211.5"/>
<text text-anchor="middle" x="650" y="-225.8" font-family="Times,serif" font-size="14.00">Henry III</text>
</g>
<!-- Rr9&#45;&gt;LHenry III -->
<g id="edge22" class="edge"><title>Rr9&#45;&gt;LHenry III</title>
<path fill="none" stroke="black" d="M489.317,-296.181C518.332,-284.065 569.621,-262.647 606.244,-247.354"/>
<polygon fill="black" stroke="black" points="607.805,-250.495 615.685,-243.412 605.108,-244.036 607.805,-250.495"/>
<text text-anchor="middle" x="572.5" y="-274.3" font-family="Times,serif" font-size="14.00">nom</text>
</g>
</g>
</svg>
